<mxfile host="65bd71144e">
    <diagram id="HadrNUfJjAVtZyrbv93x" name="Page-1">
        <mxGraphModel dx="1478" dy="1422" grid="0" gridSize="10" guides="1" tooltips="1" connect="1" arrows="1" fold="1" page="0" pageScale="1" pageWidth="827" pageHeight="1169" math="0" shadow="0">
            <root>
                <mxCell id="0"/>
                <mxCell id="1" parent="0"/>
                <mxCell id="48" value="" style="rounded=1;whiteSpace=wrap;html=1;fontFamily=source code pro;fontSource=https%3A%2F%2Ffonts.googleapis.com%2Fcss%3Ffamily%3Dsource%2Bcode%2Bpro;fillColor=#808080;strokeColor=none;arcSize=2;fontStyle=1" parent="1" vertex="1">
                    <mxGeometry x="319.5" y="746" width="151" height="251" as="geometry"/>
                </mxCell>
                <mxCell id="47" value="" style="rounded=1;whiteSpace=wrap;html=1;fontFamily=source code pro;fontSource=https%3A%2F%2Ffonts.googleapis.com%2Fcss%3Ffamily%3Dsource%2Bcode%2Bpro;fillColor=#808080;strokeColor=none;arcSize=2;fontStyle=1" parent="1" vertex="1">
                    <mxGeometry x="319.5" y="473" width="151" height="258" as="geometry"/>
                </mxCell>
                <mxCell id="51" style="edgeStyle=orthogonalEdgeStyle;html=1;curved=1;dashed=1;strokeWidth=2;endArrow=open;endFill=0;fontFamily=source code pro;fontSource=https%3A%2F%2Ffonts.googleapis.com%2Fcss%3Ffamily%3Dsource%2Bcode%2Bpro;fontStyle=1" parent="1" source="38" target="45" edge="1">
                    <mxGeometry relative="1" as="geometry">
                        <Array as="points">
                            <mxPoint x="256" y="522"/>
                            <mxPoint x="256" y="947"/>
                        </Array>
                    </mxGeometry>
                </mxCell>
                <mxCell id="38" value="reason" style="rounded=1;whiteSpace=wrap;html=1;fontFamily=source code pro;fontSource=https%3A%2F%2Ffonts.googleapis.com%2Fcss%3Ffamily%3Dsource%2Bcode%2Bpro;fontStyle=1" parent="1" vertex="1">
                    <mxGeometry x="335" y="492" width="120" height="60" as="geometry"/>
                </mxCell>
                <mxCell id="39" value="plan&lt;sub&gt;i&lt;/sub&gt;" style="rounded=1;whiteSpace=wrap;html=1;fontFamily=source code pro;fontSource=https%3A%2F%2Ffonts.googleapis.com%2Fcss%3Ffamily%3Dsource%2Bcode%2Bpro;fontStyle=1" parent="1" vertex="1">
                    <mxGeometry x="335" y="639" width="120" height="60" as="geometry"/>
                </mxCell>
                <mxCell id="40" value="produce" style="html=1;endArrow=open;endFill=0;strokeWidth=2;fontFamily=source code pro;fontSource=https%3A%2F%2Ffonts.googleapis.com%2Fcss%3Ffamily%3Dsource%2Bcode%2Bpro;labelBackgroundColor=none;fontStyle=1" parent="1" source="38" target="39" edge="1">
                    <mxGeometry x="-0.0115" y="31" relative="1" as="geometry">
                        <mxPoint x="367" y="314" as="sourcePoint"/>
                        <mxPoint x="419" y="314" as="targetPoint"/>
                        <mxPoint as="offset"/>
                    </mxGeometry>
                </mxCell>
                <mxCell id="41" value="action&lt;sub&gt;ij&lt;/sub&gt;" style="rounded=1;whiteSpace=wrap;html=1;fontFamily=source code pro;fontSource=https%3A%2F%2Ffonts.googleapis.com%2Fcss%3Ffamily%3Dsource%2Bcode%2Bpro;fontStyle=1" parent="1" vertex="1">
                    <mxGeometry x="335" y="709" width="120" height="60" as="geometry"/>
                </mxCell>
                <mxCell id="44" value="tool&lt;sub&gt;ijp&lt;/sub&gt;" style="rounded=1;whiteSpace=wrap;html=1;fontFamily=source code pro;fontSource=https%3A%2F%2Ffonts.googleapis.com%2Fcss%3Ffamily%3Dsource%2Bcode%2Bpro;fontStyle=1" parent="1" vertex="1">
                    <mxGeometry x="335" y="779" width="120" height="60" as="geometry"/>
                </mxCell>
                <mxCell id="45" value="environment" style="rounded=1;whiteSpace=wrap;html=1;fontFamily=source code pro;fontSource=https%3A%2F%2Ffonts.googleapis.com%2Fcss%3Ffamily%3Dsource%2Bcode%2Bpro;fontStyle=1" parent="1" vertex="1">
                    <mxGeometry x="335" y="917" width="120" height="60" as="geometry"/>
                </mxCell>
                <mxCell id="46" value="affect" style="html=1;endArrow=open;endFill=0;strokeWidth=2;dashed=1;fontFamily=source code pro;fontSource=https%3A%2F%2Ffonts.googleapis.com%2Fcss%3Ffamily%3Dsource%2Bcode%2Bpro;labelBackgroundColor=none;fontStyle=1" parent="1" source="44" target="45" edge="1">
                    <mxGeometry x="-0.0513" y="37" relative="1" as="geometry">
                        <mxPoint x="152" y="679" as="sourcePoint"/>
                        <mxPoint x="345" y="679" as="targetPoint"/>
                        <mxPoint as="offset"/>
                    </mxGeometry>
                </mxCell>
                <mxCell id="49" value="body" style="text;whiteSpace=wrap;html=1;align=center;fontFamily=source code pro;fontSource=https%3A%2F%2Ffonts.googleapis.com%2Fcss%3Ffamily%3Dsource%2Bcode%2Bpro;fontStyle=1" parent="1" vertex="1">
                    <mxGeometry x="470.4986328125" y="961.0029611932662" width="68" height="36" as="geometry"/>
                </mxCell>
                <mxCell id="50" value="brain" style="text;whiteSpace=wrap;html=1;align=center;fontFamily=source code pro;fontSource=https%3A%2F%2Ffonts.googleapis.com%2Fcss%3Ffamily%3Dsource%2Bcode%2Bpro;fontStyle=1" parent="1" vertex="1">
                    <mxGeometry x="470.4986328125" y="473.0029611932662" width="68" height="36" as="geometry"/>
                </mxCell>
                <mxCell id="52" value="&lt;span style=&quot;color: rgb(0, 0, 0); font-size: 11px; font-style: normal; font-variant-ligatures: normal; font-variant-caps: normal; letter-spacing: normal; orphans: 2; text-align: center; text-indent: 0px; text-transform: none; widows: 2; word-spacing: 0px; -webkit-text-stroke-width: 0px; white-space: nowrap; background-color: rgb(255, 255, 255); text-decoration-thickness: initial; text-decoration-style: initial; text-decoration-color: initial; float: none; display: inline !important;&quot;&gt;affect&lt;/span&gt;" style="text;whiteSpace=wrap;html=1;fontFamily=source code pro;fontSource=https%3A%2F%2Ffonts.googleapis.com%2Fcss%3Ffamily%3Dsource%2Bcode%2Bpro;fontStyle=1" parent="1" vertex="1">
                    <mxGeometry x="258.99613188244035" y="721.0011764090401" width="68" height="36" as="geometry"/>
                </mxCell>
            </root>
        </mxGraphModel>
    </diagram>
</mxfile>